<svg width="34" height="34" viewBox="0 0 34 34" fill="none" xmlns="http://www.w3.org/2000/svg">
<path d="M25.5 2.83337V5.66671M8.5 2.83337V5.66671" stroke="#4C5FF7" stroke-width="2.02841" stroke-linecap="round" stroke-linejoin="round"/>
<path d="M16.9935 18.4166H17.0063M16.9935 24.0833H17.0063M22.6538 18.4166H22.6666M11.3333 18.4166H11.346M11.3333 24.0833H11.346" stroke="#4C5FF7" stroke-width="2.70455" stroke-linecap="round" stroke-linejoin="round"/>
<path d="M4.95825 11.3334H29.0416" stroke="#4C5FF7" stroke-width="2.02841" stroke-linecap="round" stroke-linejoin="round"/>
<path d="M3.54175 17.3445C3.54175 11.1717 3.54175 8.08531 5.31558 6.16766C7.08942 4.25 9.94436 4.25 15.6542 4.25H18.3459C24.0558 4.25 26.9108 4.25 28.6846 6.16766C30.4584 8.08531 30.4584 11.1717 30.4584 17.3445V18.0721C30.4584 24.245 30.4584 27.3313 28.6846 29.2491C26.9108 31.1667 24.0558 31.1667 18.3459 31.1667H15.6542C9.94436 31.1667 7.08942 31.1667 5.31558 29.2491C3.54175 27.3313 3.54175 24.245 3.54175 18.0721V17.3445Z" stroke="#4C5FF7" stroke-width="2.02841" stroke-linecap="round" stroke-linejoin="round"/>
<path d="M4.25 11.3334H29.75" stroke="#4C5FF7" stroke-width="2.02841" stroke-linecap="round" stroke-linejoin="round"/>
</svg>
