<svg width="22" height="22" viewBox="0 0 22 22" fill="none" xmlns="http://www.w3.org/2000/svg">
<path d="M7.33334 7.3335L7.8021 7.83642L8.17858 7.48551L7.94795 7.02541L7.33334 7.3335ZM4.57631 1.8335L5.19091 1.52541C5.09745 1.33896 4.92439 1.20502 4.72046 1.16129C4.51653 1.11755 4.30377 1.16877 4.14207 1.30051L4.57631 1.8335ZM14.6664 14.6669L14.9745 14.0523L14.5144 13.8217L14.1635 14.1981L14.6664 14.6669ZM20.1664 17.424L20.6994 17.8582C20.8312 17.6965 20.8824 17.4838 20.8387 17.2798C20.795 17.0759 20.6609 16.9029 20.4745 16.8094L20.1664 17.424ZM1.23998 7.07626C1.50734 8.40111 1.95281 9.7085 2.85987 11.2895L4.05252 10.6053C3.22084 9.15563 2.82672 7.98812 2.58786 6.80449L1.23998 7.07626ZM3.92496 11.4503L7.8021 7.83642L6.86459 6.83059L2.98743 10.4445L3.92496 11.4503ZM7.94795 7.02541L5.19091 1.52541L3.9617 2.1416L6.71874 7.6416L7.94795 7.02541ZM4.14207 1.30051C2.75592 2.42981 0.675222 4.27277 1.23998 7.07626L2.58786 6.80449C2.20302 4.89417 3.55836 3.54962 5.01055 2.3665L4.14207 1.30051ZM2.85987 11.2895C3.77281 12.8807 4.94247 14.3873 6.27839 15.7222L7.25066 14.7499C5.99484 13.495 4.90093 12.084 4.05252 10.6053L2.85987 11.2895ZM15.1954 19.4124C14.0118 19.1735 12.8443 18.7795 11.3947 17.9478L10.7104 19.1404C12.2914 20.0475 13.5986 20.4929 14.9234 20.7603L15.1954 19.4124ZM11.5555 19.0128L15.1694 15.1357L14.1635 14.1981L10.5497 18.0754L11.5555 19.0128ZM14.3583 15.2816L19.8583 18.0386L20.4745 16.8094L14.9745 14.0523L14.3583 15.2816ZM19.6335 16.9898C18.4503 18.4419 17.1057 19.7972 15.1954 19.4124L14.9234 20.7603C17.7269 21.325 19.5701 19.2444 20.6994 17.8582L19.6335 16.9898ZM11.3947 17.9478C9.91596 17.0994 8.5056 16.0057 7.25066 14.7499L6.27839 15.7222C7.61329 17.0581 9.11915 18.2274 10.7104 19.1404L11.3947 17.9478Z" fill="#B8B8B8"/>
</svg>
