<svg width="22" height="20" viewBox="0 0 22 20" fill="none" xmlns="http://www.w3.org/2000/svg">
<path d="M20.2942 5.68387V8.63054H13.0314C12.2817 8.63054 11.6619 9.25027 11.6619 9.99999V13.0467C11.6619 13.7964 12.2817 14.4161 13.0314 14.4161H20.2942V17.3628C20.2942 17.7383 20.008 18.0244 19.6325 18.0244H2.36804C1.99252 18.0244 1.70638 17.7383 1.70638 17.3628V4.81084C1.98377 4.94477 2.29433 5.02221 2.62193 5.02221H2.62202C6.52311 5.01874 10.7305 5.02001 14.5712 5.02116C16.3605 5.02169 18.0703 5.02221 19.6325 5.02221C20.008 5.02221 20.2942 5.30836 20.2942 5.68387ZM13.0312 9.8461H13.0314H20.2942V13.2005H13.0314C12.9806 13.2005 12.9434 13.1832 12.9191 13.1589C12.8948 13.1347 12.8775 13.0975 12.8775 13.0467V9.99999C12.8775 9.94916 12.8948 9.91188 12.9191 9.88757C12.9434 9.86329 12.9805 9.84599 13.0312 9.8461ZM2.62193 0.759985C1.45025 0.759985 0.49082 1.71942 0.49082 2.8911V17.3628C0.49082 18.3938 1.33702 19.24 2.36804 19.24H19.6325C20.6635 19.24 21.5097 18.3938 21.5097 17.3628V5.68387C21.5097 4.65285 20.6635 3.80665 19.6325 3.80665H18.463V1.36776C18.463 1.04666 18.1764 0.760016 17.8553 0.759985H2.62193ZM2.62193 1.97554H17.2475V3.80665H2.62193C2.10576 3.80665 1.70638 3.40727 1.70638 2.8911C1.70638 2.37492 2.10576 1.97554 2.62193 1.97554ZM15.5703 10.4078C14.9542 10.4078 14.4547 10.9072 14.4547 11.5233C14.4547 12.1394 14.9542 12.6389 15.5703 12.6389C16.1864 12.6389 16.6858 12.1394 16.6858 11.5233C16.6858 10.9072 16.1864 10.4078 15.5703 10.4078Z" fill="#98A2B3" stroke="#98A2B3" stroke-width="0.2"/>
</svg>
