<svg width="34" height="34" viewBox="0 0 34 34" fill="none" xmlns="http://www.w3.org/2000/svg">
<path d="M2.83333 17.7969C2.83333 13.4143 2.83333 11.223 4.2856 9.8615C5.73785 8.5 8.07524 8.5 12.75 8.5H21.25C25.9247 8.5 28.2621 8.5 29.7144 9.8615C31.1667 11.223 31.1667 13.4143 31.1667 17.7969V20.4531C31.1667 24.8357 31.1667 27.027 29.7144 28.3884C28.2621 29.75 25.9247 29.75 21.25 29.75H12.75C8.07524 29.75 5.73785 29.75 4.2856 28.3884C2.83333 27.027 2.83333 24.8357 2.83333 20.4531V17.7969Z" stroke="#4C5FF7" stroke-width="2.125" stroke-linecap="round" stroke-linejoin="round"/>
<path d="M12.75 19.125H21.25M17 14.875V23.375" stroke="#4C5FF7" stroke-width="2.125" stroke-linecap="round" stroke-linejoin="round"/>
<path d="M24.0833 8.5C24.0833 4.98383 23.3495 4.25 19.8333 4.25H14.1667C10.6505 4.25 9.91667 4.98383 9.91667 8.5" stroke="#4C5FF7" stroke-width="2.125" stroke-linecap="round" stroke-linejoin="round"/>
</svg>
