<svg width="27" height="26" viewBox="0 0 27 26" fill="none" xmlns="http://www.w3.org/2000/svg">
<path d="M11.3333 19.5H15.6666" stroke="#616161" stroke-width="1.5" stroke-linecap="round" stroke-linejoin="round"/>
<path d="M3.04736 14.3146C2.66492 11.8259 2.4737 10.5816 2.9442 9.47848C3.4147 8.37537 4.45855 7.62062 6.54626 6.11114L8.10609 4.98332C10.7032 3.10555 12.0017 2.16666 13.5 2.16666C14.9984 2.16666 16.2969 3.10555 18.8939 4.98332L20.4538 6.11114C22.5415 7.62062 23.5853 8.37537 24.0558 9.47848C24.5263 10.5816 24.3351 11.8259 23.9527 14.3146L23.6266 16.4368C23.0844 19.9646 22.8133 21.7286 21.5481 22.781C20.2829 23.8333 18.4332 23.8333 14.7337 23.8333H12.2663C8.56688 23.8333 6.71717 23.8333 5.45194 22.781C4.1867 21.7286 3.91563 19.9646 3.37349 16.4368L3.04736 14.3146Z" stroke="#616161" stroke-width="1.5" stroke-linejoin="round"/>
</svg>
