<svg width="22" height="22" viewBox="0 0 22 22" fill="none" xmlns="http://www.w3.org/2000/svg">
<path d="M6.41675 7.7915L9.1136 9.38595C10.6858 10.3155 11.3143 10.3155 12.8866 9.38595L15.5834 7.7915" stroke="#B8B8B8" stroke-width="1.375" stroke-linecap="round" stroke-linejoin="round"/>
<path d="M1.84771 12.3528C1.90763 15.1629 1.9376 16.5679 2.97447 17.6088C4.01133 18.6496 5.45439 18.6858 8.34051 18.7583C10.1193 18.803 11.8806 18.803 13.6594 18.7583C16.5455 18.6858 17.9885 18.6496 19.0254 17.6088C20.0623 16.5679 20.0922 15.1629 20.1521 12.3528C20.1714 11.4492 20.1714 10.5511 20.1521 9.64753C20.0922 6.83745 20.0623 5.43241 19.0254 4.3916C17.9885 3.35079 16.5455 3.31454 13.6594 3.24202C11.8806 3.19732 10.1193 3.19732 8.3405 3.24201C5.45439 3.31452 4.01133 3.35077 2.97446 4.39159C1.93759 5.4324 1.90763 6.83744 1.8477 9.64753C1.82843 10.5511 1.82844 11.4492 1.84771 12.3528Z" stroke="#B8B8B8" stroke-width="1.375" stroke-linejoin="round"/>
</svg>
