<svg width="22" height="22" viewBox="0 0 22 22" fill="none" xmlns="http://www.w3.org/2000/svg">
<path d="M2.3191 13.5388C2.12417 14.8166 2.99567 15.7036 4.06272 16.1456C8.15358 17.8404 13.8464 17.8404 17.9372 16.1456C19.0043 15.7036 19.8758 14.8166 19.6809 13.5388C19.5611 12.7535 18.9688 12.0996 18.5299 11.461C17.955 10.6144 17.8979 9.69083 17.8978 8.70834C17.8978 4.91138 14.8096 1.83334 11 1.83334C7.19046 1.83334 4.10221 4.91138 4.10221 8.70834C4.10212 9.69083 4.045 10.6144 3.47015 11.461C3.03128 12.0996 2.4389 12.7535 2.3191 13.5388Z" stroke="black" stroke-width="1.3125" stroke-linecap="round" stroke-linejoin="round"/>
<path d="M7.33333 17.4167C7.75361 18.9981 9.23587 20.1667 11 20.1667C12.7641 20.1667 14.2464 18.9981 14.6667 17.4167" stroke="black" stroke-width="1.3125" stroke-linecap="round" stroke-linejoin="round"/>
</svg>
