<svg width="34" height="34" viewBox="0 0 34 34" fill="none" xmlns="http://www.w3.org/2000/svg">
<path d="M28.7433 5.25936C27.4168 3.93285 25.6176 3.18762 23.7416 3.18762C21.8656 3.18762 20.0664 3.93285 18.7399 5.25936L5.25941 18.7385C3.96062 20.0707 3.239 21.861 3.25088 23.7215C3.26276 25.582 4.00718 27.3629 5.32287 28.6785C6.63857 29.994 8.41959 30.7382 10.2801 30.7498C12.1406 30.7614 13.9308 30.0396 15.2628 28.7406L28.7446 15.2615C30.0689 13.9339 30.8126 12.1353 30.8123 10.2601C30.8121 8.385 30.068 6.58654 28.7433 5.25936ZM13.7607 27.2385C12.8328 28.1667 11.5741 28.6882 10.2616 28.6883C8.94911 28.6884 7.69033 28.1671 6.76218 27.2392C5.83402 26.3112 5.31252 25.0525 5.3124 23.74C5.31227 22.4275 5.83354 21.1688 6.76151 20.2406L12.75 14.2521L19.7492 21.25L13.7607 27.2385ZM27.2412 13.7594L21.25 19.7479L14.2535 12.75L20.2433 6.76147C21.175 5.85134 22.4279 5.34519 23.7303 5.35279C25.0327 5.3604 26.2796 5.88116 27.2006 6.80212C28.1215 7.72308 28.6423 8.96998 28.6499 10.2724C28.6575 11.5748 28.1513 12.8277 27.2412 13.7594ZM25.1919 10.9358C25.2907 11.0344 25.3691 11.1516 25.4225 11.2806C25.476 11.4096 25.5035 11.5479 25.5035 11.6875C25.5035 11.8271 25.476 11.9654 25.4225 12.0944C25.3691 12.2233 25.2907 12.3405 25.1919 12.4392L22.0044 15.6267C21.9057 15.7253 21.7885 15.8036 21.6596 15.8569C21.5306 15.9102 21.3924 15.9377 21.2529 15.9376C21.1133 15.9375 20.9752 15.91 20.8463 15.8565C20.7174 15.8031 20.6003 15.7248 20.5016 15.626C20.403 15.5273 20.3248 15.4101 20.2714 15.2812C20.2181 15.1523 20.1907 15.0141 20.1907 14.8745C20.1908 14.735 20.2183 14.5968 20.2718 14.4679C20.3253 14.339 20.4036 14.2219 20.5023 14.1233L23.6898 10.9358C23.889 10.7367 24.1592 10.6248 24.4408 10.6248C24.7225 10.6248 24.9927 10.7367 25.1919 10.9358Z" fill="#4C5FF7"/>
</svg>
