<svg width="26" height="26" viewBox="0 0 26 26" fill="none" xmlns="http://www.w3.org/2000/svg">
<path d="M22.5231 9.91468C23.3966 11.4203 23.8333 12.173 23.8333 13C23.8333 13.827 23.3966 14.5797 22.5231 16.0853L20.4391 19.6775C19.5691 21.177 19.1341 21.9269 18.4187 22.3384C17.7034 22.75 16.8352 22.75 15.0987 22.75H10.9012C9.1648 22.75 8.29659 22.75 7.58123 22.3384C6.86587 21.9269 6.43086 21.177 5.56086 19.6775L3.47686 16.0853C2.60339 14.5797 2.16666 13.827 2.16666 13C2.16666 12.173 2.60339 11.4203 3.47686 9.91467L5.56086 6.32256C6.43086 4.82296 6.86587 4.07316 7.58123 3.66158C8.29659 3.25 9.1648 3.25 10.9012 3.25H15.0987C16.8352 3.25 17.7034 3.25 18.4187 3.66158C19.1341 4.07316 19.5691 4.82297 20.4391 6.32257L22.5231 9.91468Z" fill="#4C5FF7" stroke="#4C5FF7" stroke-width="1.5"/>
<path d="M16.7917 13C16.7917 15.0941 15.0941 16.7917 13 16.7917C10.9059 16.7917 9.20834 15.0941 9.20834 13C9.20834 10.9059 10.9059 9.20833 13 9.20833C15.0941 9.20833 16.7917 10.9059 16.7917 13Z" fill="white" stroke="#4C5FF7" stroke-width="1.5"/>
</svg>
