<svg width="27" height="26" viewBox="0 0 27 26" fill="none" xmlns="http://www.w3.org/2000/svg">
<path d="M17.2917 13C17.2917 15.0941 15.5941 16.7917 13.5 16.7917C11.4059 16.7917 9.70834 15.0941 9.70834 13C9.70834 10.9059 11.4059 9.20834 13.5 9.20834C15.5941 9.20834 17.2917 10.9059 17.2917 13Z" stroke="#616161" stroke-width="1.5"/>
<path d="M23.0231 9.91468C23.8966 11.4203 24.3333 12.173 24.3333 13C24.3333 13.827 23.8966 14.5797 23.0231 16.0853L20.9391 19.6774C20.0691 21.177 19.6341 21.9269 18.9187 22.3384C18.2034 22.75 17.3352 22.75 15.5987 22.75H11.4012C9.66479 22.75 8.79659 22.75 8.08123 22.3384C7.36587 21.9269 6.93086 21.177 6.06086 19.6774L3.97686 16.0853C3.10339 14.5797 2.66666 13.827 2.66666 13C2.66666 12.173 3.10339 11.4203 3.97686 9.91467L6.06086 6.32256C6.93086 4.82296 7.36587 4.07316 8.08123 3.66158C8.79659 3.25 9.66479 3.25 11.4012 3.25H15.5987C17.3352 3.25 18.2034 3.25 18.9187 3.66158C19.6341 4.07316 20.0691 4.82297 20.9391 6.32257L23.0231 9.91468Z" stroke="#616161" stroke-width="1.5"/>
</svg>
