<svg width="29" height="29" viewBox="0 0 29 29" fill="none" xmlns="http://www.w3.org/2000/svg">
<path d="M15.8242 24.2163C15.8242 24.2163 16.9864 24.2163 18.1485 26.5406C18.1485 26.5406 21.8402 20.7298 25.1215 19.5676" stroke="#168929" stroke-width="1.74324" stroke-linecap="round" stroke-linejoin="round"/>
<path d="M8.27051 19.5675H12.9192M8.27051 13.7567H17.5678" stroke="#168929" stroke-width="1.74324" stroke-linecap="round"/>
<path d="M7.68933 5.04053C5.88123 5.09477 4.80322 5.29602 4.0573 6.04262C3.03613 7.06475 3.03613 8.70982 3.03613 12V19.561C3.03613 22.8512 3.03613 24.4963 4.0573 25.5184C5.07847 26.5405 6.72202 26.5405 10.0091 26.5405H12.9145M18.1397 5.04053C19.9478 5.09477 21.0258 5.29602 21.7717 6.04264C22.7929 7.06475 22.7929 8.70982 22.7929 12V16.6621" stroke="#168929" stroke-width="1.74324" stroke-linecap="round"/>
<path d="M7.68457 5.33102C7.68457 4.2078 8.59514 3.29724 9.71835 3.29724H16.1103C17.2335 3.29724 18.144 4.2078 18.144 5.33102C18.144 6.45425 17.2335 7.36481 16.1103 7.36481H9.71835C8.59514 7.36481 7.68457 6.45425 7.68457 5.33102Z" stroke="#168929" stroke-width="1.74324" stroke-linejoin="round"/>
</svg>
