<svg width="34" height="34" viewBox="0 0 34 34" fill="none" xmlns="http://www.w3.org/2000/svg">
<path d="M4.9585 13.272C4.9585 8.35116 4.9585 5.89077 6.41076 4.36207C7.86302 2.83337 10.2004 2.83337 14.8752 2.83337H19.1252C23.7999 2.83337 26.1372 2.83337 27.5896 4.36207C29.0418 5.89077 29.0418 8.35116 29.0418 13.272V20.7281C29.0418 25.6489 29.0418 28.1093 27.5896 29.638C26.1372 31.1667 23.7999 31.1667 19.1252 31.1667H14.8752C10.2004 31.1667 7.86302 31.1667 6.41076 29.638C4.9585 28.1093 4.9585 25.6489 4.9585 20.7281V13.272Z" stroke="#4C5FF7" stroke-width="2.125" stroke-linecap="round" stroke-linejoin="round"/>
<path d="M19.125 15.5834H24.0833" stroke="#4C5FF7" stroke-width="2.125" stroke-linecap="round"/>
<path d="M9.9165 17C9.9165 17 10.6248 17 11.3332 18.4166C11.3332 18.4166 13.5832 14.875 15.5832 14.1666" stroke="#4C5FF7" stroke-width="2.125" stroke-linecap="round" stroke-linejoin="round"/>
<path d="M19.125 24.0834H24.0833" stroke="#4C5FF7" stroke-width="2.125" stroke-linecap="round"/>
<path d="M11.3335 2.83337L11.4499 3.53207C11.7326 5.22816 11.874 6.07621 12.4684 6.57979C13.0629 7.08337 13.9226 7.08337 15.6421 7.08337H18.3582C20.0777 7.08337 20.9375 7.08337 21.5319 6.57979C22.1264 6.07621 22.2678 5.22816 22.5504 3.53207L22.6668 2.83337" stroke="#4C5FF7" stroke-width="2.125" stroke-linecap="round" stroke-linejoin="round"/>
<path d="M11.3335 24.0834H12.7502" stroke="#4C5FF7" stroke-width="2.83333" stroke-linecap="round" stroke-linejoin="round"/>
</svg>
