<svg width="24" height="16" viewBox="0 0 24 16" fill="none" xmlns="http://www.w3.org/2000/svg">
<path d="M0 2C0 1.60218 0.158035 1.22064 0.43934 0.93934C0.720644 0.658035 1.10218 0.5 1.5 0.5H22.5C22.8978 0.5 23.2794 0.658035 23.5607 0.93934C23.842 1.22064 24 1.60218 24 2V14C24 14.3978 23.842 14.7794 23.5607 15.0607C23.2794 15.342 22.8978 15.5 22.5 15.5H1.5C1.10218 15.5 0.720644 15.342 0.43934 15.0607C0.158035 14.7794 0 14.3978 0 14V2ZM4.5 2C4.5 2.79565 4.18393 3.55871 3.62132 4.12132C3.05871 4.68393 2.29565 5 1.5 5V11C2.29565 11 3.05871 11.3161 3.62132 11.8787C4.18393 12.4413 4.5 13.2044 4.5 14H19.5C19.5 13.2044 19.8161 12.4413 20.3787 11.8787C20.9413 11.3161 21.7044 11 22.5 11V5C21.7044 5 20.9413 4.68393 20.3787 4.12132C19.8161 3.55871 19.5 2.79565 19.5 2H4.5Z" fill="#98A2B3"/>
</svg>
